<svg xmlns="http://www.w3.org/2000/svg" width="449.811" height="95.883" viewBox="0 0 443.469 94.531">
  <defs>
    <style>
      .cls-1 {
        fill: #666;
        fill-rule: evenodd;
      }
    </style>
  </defs>
  <path id="Created_by_SamWest" data-name="Created by SamWest" class="cls-1" d="M49.2,199.4q8.16,0,12.76-3.24a10.179,10.179,0,0,0,4.6-8.76A9.029,9.029,0,0,0,64.4,181a11.879,11.879,0,0,0-5.2-3.28,73.669,73.669,0,0,0-8.08-1.92,62.4,62.4,0,0,1-6.4-1.4,9.574,9.574,0,0,1-3.88-2.12,4.975,4.975,0,0,1-1.56-3.84,5.88,5.88,0,0,1,2.76-5.04q2.76-1.92,8.2-1.92a21.242,21.242,0,0,1,12.4,3.6l2.48-4.56a22.461,22.461,0,0,0-6.72-2.84,31.772,31.772,0,0,0-8.16-1.08q-7.841,0-12.24,3.36a10.4,10.4,0,0,0-4.4,8.64,9.453,9.453,0,0,0,2.2,6.64,12.1,12.1,0,0,0,5.32,3.4,70.327,70.327,0,0,0,8.24,1.96,55.421,55.421,0,0,1,6.16,1.32,10.112,10.112,0,0,1,3.84,2,4.571,4.571,0,0,1,1.52,3.64,5.726,5.726,0,0,1-2.76,5.08q-2.76,1.8-8.52,1.8a26.375,26.375,0,0,1-8.32-1.32,21.517,21.517,0,0,1-6.64-3.4l-2.56,4.48a21.057,21.057,0,0,0,7.32,3.72,32.3,32.3,0,0,0,9.8,1.48h0Zm45.16,0a21.672,21.672,0,0,0,9.68-2.12,16.082,16.082,0,0,0,6.8-6.2l-4.24-2.88a12.973,12.973,0,0,1-5.28,4.64,16.006,16.006,0,0,1-6.96,1.52,16.48,16.48,0,0,1-8.2-2.04,14.4,14.4,0,0,1-5.68-5.76,19.063,19.063,0,0,1,0-17.16,14.334,14.334,0,0,1,5.68-5.8,16.48,16.48,0,0,1,8.2-2.04,15.672,15.672,0,0,1,6.96,1.56,13.283,13.283,0,0,1,5.28,4.68l4.24-2.88a16.157,16.157,0,0,0-6.76-6.2,21.63,21.63,0,0,0-9.72-2.12,22.68,22.68,0,0,0-11.16,2.72,19.77,19.77,0,0,0-7.72,7.6,23.243,23.243,0,0,0,0,22.12,19.678,19.678,0,0,0,7.72,7.64,22.669,22.669,0,0,0,11.16,2.72h0Zm33-34.24v-8.24h-5.44V199h5.68V177.56q0-7.359,3.76-11.44t10.4-4.08l1.36,0.08V156.6a20.251,20.251,0,0,0-9.8,2.16,13.76,13.76,0,0,0-5.96,6.4h0Zm43.76,34.24a21.873,21.873,0,0,0,10.96-2.76,19.841,19.841,0,0,0,7.64-7.64,23.46,23.46,0,0,0,0-22.08,19.573,19.573,0,0,0-7.64-7.6,23.441,23.441,0,0,0-21.92,0,19.84,19.84,0,0,0-7.68,7.6,23.165,23.165,0,0,0,0,22.08,20.114,20.114,0,0,0,7.68,7.64,21.867,21.867,0,0,0,10.96,2.76h0Zm0-5.04a15.874,15.874,0,0,1-8.04-2.04,14.475,14.475,0,0,1-5.6-5.8,18.979,18.979,0,0,1,0-17.12,14.488,14.488,0,0,1,5.6-5.8,16.864,16.864,0,0,1,16.08,0,14.233,14.233,0,0,1,5.56,5.8,19.318,19.318,0,0,1,0,17.12,14.22,14.22,0,0,1-5.56,5.8,15.882,15.882,0,0,1-8.04,2.04h0Zm32.8,4.64h5.68V139.64h-5.68V199Zm22,0h5.68V139.64h-5.68V199Zm47.52,0.48A30.937,30.937,0,0,0,285,197.36a24.209,24.209,0,0,0,9-6.12l-3.76-3.76q-6.48,6.72-16.56,6.72a24.32,24.32,0,0,1-12.08-3.04,22.2,22.2,0,0,1-8.52-8.32,24.3,24.3,0,0,1,0-23.68,22.218,22.218,0,0,1,8.52-8.32,24.342,24.342,0,0,1,12.08-3.04,22.31,22.31,0,0,1,16.56,6.64l3.76-3.76a23.907,23.907,0,0,0-8.96-6.08,31.172,31.172,0,0,0-11.52-2.08,30.8,30.8,0,0,0-15.04,3.68,26.876,26.876,0,0,0-10.52,10.2,29.947,29.947,0,0,0,0,29.2,26.917,26.917,0,0,0,10.48,10.2,30.554,30.554,0,0,0,15,3.68h0Zm64.72-42.56V179q0,7.2-3.84,11.24t-10.48,4.04q-6.081,0-9.36-3.44t-3.28-10.08V156.92h-5.68v24.4q0,8.88,4.76,13.48t13,4.6a18.529,18.529,0,0,0,8.96-2.12,15.576,15.576,0,0,0,6.16-5.96V199h5.44V156.92h-5.68Zm58.48,21.04A22.767,22.767,0,0,0,394,166.88a19.293,19.293,0,0,0-7.28-7.56,20.339,20.339,0,0,0-10.48-2.72,20.55,20.55,0,0,0-10.52,2.72,19.408,19.408,0,0,0-7.36,7.6,22.552,22.552,0,0,0-2.68,11.04,21.761,21.761,0,0,0,2.8,11.04,19.885,19.885,0,0,0,7.8,7.64,23.358,23.358,0,0,0,11.48,2.76,23.662,23.662,0,0,0,9.24-1.76,18.018,18.018,0,0,0,7-5.12l-3.2-3.68a15.71,15.71,0,0,1-5.68,4.12,18.147,18.147,0,0,1-7.2,1.4,16.727,16.727,0,0,1-11.52-4.04,15.036,15.036,0,0,1-5.04-10.6h35.2Zm-20.4-16.48a14.418,14.418,0,0,1,10.28,3.88,15.248,15.248,0,0,1,4.68,10.12H361.36a15.239,15.239,0,0,1,4.68-10.12,14.309,14.309,0,0,1,10.2-3.88h0Zm32.24,37.92a4.154,4.154,0,0,0,3.04-1.28A4.248,4.248,0,0,0,412.8,195a4.121,4.121,0,0,0-1.28-3.08,4.226,4.226,0,0,0-3.04-1.24,4.087,4.087,0,0,0-3,1.24,4.178,4.178,0,0,0-1.24,3.08,4.308,4.308,0,0,0,1.24,3.12,4.019,4.019,0,0,0,3,1.28h0Zm10.2,15.52q5.919,0,9.12-3.44t3.2-9.36v-45.2h-5.68v45.2q0,3.919-1.8,5.92a6.588,6.588,0,0,1-5.16,2,9.633,9.633,0,0,1-6.56-2.16l-2,4.32a9.81,9.81,0,0,0,3.88,2.04,17.991,17.991,0,0,0,5,.68h0Zm9.52-67.28a4.1,4.1,0,0,0,4.16-4.16,3.711,3.711,0,0,0-1.2-2.76,4.1,4.1,0,0,0-2.96-1.16,4.021,4.021,0,0,0-2.96,1.2,3.839,3.839,0,0,0-1.2,2.8,3.928,3.928,0,0,0,1.2,2.88,4.021,4.021,0,0,0,2.96,1.2h0Zm30,51.76q8.16,0,12.76-3.24a10.18,10.18,0,0,0,4.6-8.76,9.029,9.029,0,0,0-2.16-6.4,11.88,11.88,0,0,0-5.2-3.28,73.7,73.7,0,0,0-8.08-1.92,62.389,62.389,0,0,1-6.4-1.4,9.571,9.571,0,0,1-3.88-2.12,4.975,4.975,0,0,1-1.56-3.84,5.88,5.88,0,0,1,2.76-5.04q2.76-1.92,8.2-1.92a21.243,21.243,0,0,1,12.4,3.6l2.48-4.56a22.461,22.461,0,0,0-6.72-2.84,31.772,31.772,0,0,0-8.16-1.08q-7.841,0-12.24,3.36a10.4,10.4,0,0,0-4.4,8.64,9.451,9.451,0,0,0,2.2,6.64,12.1,12.1,0,0,0,5.32,3.4,70.317,70.317,0,0,0,8.24,1.96,55.4,55.4,0,0,1,6.16,1.32,10.115,10.115,0,0,1,3.84,2,4.573,4.573,0,0,1,1.52,3.64,5.726,5.726,0,0,1-2.76,5.08q-2.76,1.8-8.52,1.8a26.374,26.374,0,0,1-8.32-1.32,21.511,21.511,0,0,1-6.64-3.4l-2.56,4.48a21.057,21.057,0,0,0,7.32,3.72,32.294,32.294,0,0,0,9.8,1.48h0ZM168.666,220.194a5.735,5.735,0,0,0-6-4.924c-3.761,0-6.535,2.817-6.535,7.464s2.76,7.465,6.535,7.465a5.791,5.791,0,0,0,6-4.875l-2.214-.007a3.622,3.622,0,0,1-3.775,2.881c-2.49,0-4.371-1.909-4.371-5.464,0-3.526,1.874-5.463,4.378-5.463a3.61,3.61,0,0,1,3.768,2.923h2.214Zm1.56,9.806h2.122v-6.655a2.449,2.449,0,0,1,2.6-2.455,5.07,5.07,0,0,1,1.107.127v-2.029a8.731,8.731,0,0,0-.9-0.05,2.837,2.837,0,0,0-2.767,1.9h-0.113V219.1h-2.051V230Zm11.9,0.22c2.377,0,4.059-1.171,4.541-2.945l-2.008-.361a2.465,2.465,0,0,1-2.511,1.553c-1.817,0-3.037-1.177-3.094-3.278H186.8v-0.752c0-3.938-2.356-5.477-4.825-5.477-3.037,0-5.037,2.313-5.037,5.662C176.937,228.006,178.909,230.22,182.123,230.22Zm-3.065-6.62a2.927,2.927,0,0,1,2.93-2.888,2.692,2.692,0,0,1,2.732,2.888h-5.662Zm13.14,6.641a3.405,3.405,0,0,0,3.221-1.731H195.5V230h2.072v-7.237c0-3.172-2.5-3.8-4.229-3.8-1.972,0-3.789.794-4.5,2.781l1.994,0.454a2.544,2.544,0,0,1,2.533-1.518,1.812,1.812,0,0,1,2.071,1.951v0.05c0,0.773-.794.759-2.753,0.986-2.064.241-4.179,0.78-4.179,3.257C188.515,229.063,190.126,230.241,192.2,230.241Zm0.461-1.7c-1.2,0-2.065-.539-2.065-1.589,0-1.135,1.008-1.54,2.235-1.7a8.278,8.278,0,0,0,2.626-.582v1.405A2.557,2.557,0,0,1,192.659,228.538Zm12.455-9.436h-2.236V216.49h-2.121V219.1h-1.6v1.7h1.6v6.436a2.846,2.846,0,0,0,3.179,2.9,4.061,4.061,0,0,0,1.376-.227l-0.383-1.753a3.4,3.4,0,0,1-.745.093,1.19,1.19,0,0,1-1.306-1.455v-6h2.236v-1.7Zm6.609,11.118c2.377,0,4.059-1.171,4.541-2.945l-2.008-.361a2.465,2.465,0,0,1-2.511,1.553c-1.817,0-3.037-1.177-3.094-3.278H216.4v-0.752c0-3.938-2.356-5.477-4.825-5.477-3.037,0-5.037,2.313-5.037,5.662C206.537,228.006,208.509,230.22,211.723,230.22Zm-3.065-6.62a2.927,2.927,0,0,1,2.93-2.888,2.692,2.692,0,0,1,2.732,2.888h-5.662Zm14.448,6.613a3.325,3.325,0,0,0,3.15-1.909h0.178V230h2.072V215.469h-2.122v5.4h-0.128a3.284,3.284,0,0,0-3.136-1.908c-2.632,0-4.569,2.079-4.569,5.612S220.459,230.213,223.106,230.213Zm0.468-1.809c-1.894,0-2.88-1.668-2.88-3.853,0-2.164.965-3.789,2.88-3.789,1.852,0,2.846,1.511,2.846,3.789S225.405,228.4,223.574,228.4ZM235.2,230h2.072v-1.7h0.178a3.325,3.325,0,0,0,3.15,1.909c2.639,0,4.555-2.115,4.555-5.641s-1.944-5.612-4.576-5.612a3.273,3.273,0,0,0-3.129,1.908h-0.128v-5.4H235.2V230Zm2.079-5.449c0-2.278.994-3.789,2.846-3.789,1.922,0,2.887,1.625,2.887,3.789,0,2.185-.993,3.853-2.887,3.853C238.3,228.4,237.275,226.843,237.275,224.551Zm10.892,9.536a3.5,3.5,0,0,0,3.491-2.632l4.491-12.353h-2.277l-2.76,8.457H251l-2.76-8.457h-2.27l3.987,11.04-0.262.724a1.712,1.712,0,0,1-2.462,1.248l-0.511,1.739A4.041,4.041,0,0,0,248.167,234.087Zm20.755-14.8h2.114c-0.064-2.327-2.121-4.016-5.073-4.016-2.916,0-5.151,1.667-5.151,4.172,0,2.022,1.447,3.207,3.782,3.839l1.717,0.468c1.554,0.412,2.753.922,2.753,2.214,0,1.419-1.355,2.355-3.221,2.355-1.689,0-3.094-.752-3.222-2.334h-2.2c0.142,2.632,2.178,4.257,5.435,4.257,3.413,0,5.378-1.8,5.378-4.257,0-2.618-2.334-3.633-4.179-4.087l-1.419-.369c-1.135-.291-2.647-0.823-2.64-2.214,0-1.234,1.128-2.149,2.917-2.149C267.581,217.165,268.766,217.945,268.922,219.286ZM277,230.241a3.405,3.405,0,0,0,3.221-1.731H280.3V230h2.072v-7.237c0-3.172-2.5-3.8-4.229-3.8-1.972,0-3.789.794-4.5,2.781l1.994,0.454a2.544,2.544,0,0,1,2.533-1.518,1.812,1.812,0,0,1,2.071,1.951v0.05c0,0.773-.794.759-2.753,0.986-2.064.241-4.179,0.78-4.179,3.257C273.315,229.063,274.926,230.241,277,230.241Zm0.461-1.7c-1.2,0-2.065-.539-2.065-1.589,0-1.135,1.008-1.54,2.235-1.7a8.278,8.278,0,0,0,2.626-.582v1.405A2.557,2.557,0,0,1,277.459,228.538ZM284.826,230h2.122v-6.719a2.333,2.333,0,0,1,2.235-2.491,1.877,1.877,0,0,1,1.993,1.966V230h2.115v-6.946a2.088,2.088,0,0,1,2.185-2.264,1.9,1.9,0,0,1,2.044,2.1V230h2.121v-7.308c0-2.491-1.39-3.732-3.363-3.732a3.406,3.406,0,0,0-3.271,1.915h-0.113a2.949,2.949,0,0,0-2.931-1.915A2.98,2.98,0,0,0,287,220.875h-0.134V219.1h-2.037V230Zm21.016,0h2.213l3.059-10.884h0.113L314.285,230h2.207l4.037-14.531h-2.313l-2.824,11.26h-0.135l-2.944-11.26h-2.285l-2.945,11.253h-0.134l-2.831-11.253h-2.306Zm21.681,0.22c2.377,0,4.059-1.171,4.541-2.945l-2.008-.361a2.465,2.465,0,0,1-2.511,1.553c-1.817,0-3.037-1.177-3.094-3.278H332.2v-0.752c0-3.938-2.356-5.477-4.825-5.477-3.037,0-5.037,2.313-5.037,5.662C322.337,228.006,324.309,230.22,327.523,230.22Zm-3.065-6.62a2.927,2.927,0,0,1,2.93-2.888,2.692,2.692,0,0,1,2.732,2.888h-5.662Zm18.535-1.838c-0.44-1.695-1.767-2.8-4.123-2.8-2.462,0-4.207,1.3-4.207,3.228,0,1.547.937,2.576,2.98,3.03l1.845,0.4c1.05,0.234,1.539.7,1.539,1.384,0,0.844-.9,1.5-2.291,1.5a2.121,2.121,0,0,1-2.342-1.618l-2.05.312c0.354,1.93,1.958,3.016,4.406,3.016,2.632,0,4.456-1.4,4.456-3.37,0-1.54-.979-2.491-2.98-2.952l-1.732-.4c-1.2-.284-1.717-0.689-1.71-1.426-0.007-.838.9-1.434,2.108-1.434a2.1,2.1,0,0,1,2.178,1.462Zm7.921-2.66h-2.236V216.49h-2.121V219.1h-1.6v1.7h1.6v6.436a2.846,2.846,0,0,0,3.179,2.9,4.061,4.061,0,0,0,1.376-.227l-0.383-1.753a3.4,3.4,0,0,1-.745.093,1.19,1.19,0,0,1-1.306-1.455v-6h2.236v-1.7Z" transform="translate(-32.094 -139.563)"/>
</svg>
