<svg id="グループ_1" data-name="グループ 1" xmlns="http://www.w3.org/2000/svg" width="419.842" height="100.562" viewBox="0 0 422.844 101.281">
  <defs>
    <style>
      .cls-1 {
        fill: #333;
      }

      .cls-1, .cls-2 {
        fill-rule: evenodd;
      }

      .cls-2 {
        fill: #555;
      }
    </style>
  </defs>
  <path id="docSlider.js" class="cls-1" d="M64.467,236.267a15.144,15.144,0,0,1-3.533,3,8.243,8.243,0,0,1-4.467,1.4q-3.734,0-5-3.067t-0.133-11.4q1.131-8.331,3.733-11.533a8.69,8.69,0,0,1,7.133-3.2,11.719,11.719,0,0,1,5.6,1.6ZM41.4,215.467A39.743,39.743,0,0,0,38.2,227a45.456,45.456,0,0,0-.4,11.267Q39.266,251.2,49.667,251.2q7.2,0,14.8-6.8V250h10.4l9.467-67.867L71.8,183.867,69,204a17.508,17.508,0,0,0-7.867-2,22.477,22.477,0,0,0-7.6,1.333,18.65,18.65,0,0,0-6.8,4.334A26.722,26.722,0,0,0,41.4,215.467Zm55.733,23q-1.2-3.666-.067-12.067t3.4-12a6.941,6.941,0,0,1,6.133-3.6,5.1,5.1,0,0,1,5.2,3.6q1.332,3.6.2,11.933T108.533,238.4a7.1,7.1,0,0,1-6.266,3.733A4.922,4.922,0,0,1,97.133,238.467ZM107.8,201.733q-9.335,0-15.333,5.734-6.669,6.268-8.133,18.8a36.068,36.068,0,0,0-.267,11.466Q86.332,251.2,101,251.2q9.865,0,15.6-5.733a25.25,25.25,0,0,0,5.133-7.734A44.4,44.4,0,0,0,124.8,226.4a36.339,36.339,0,0,0,.2-11.333q-2.268-13.332-17.2-13.334h0Zm56.467,1.867a29.917,29.917,0,0,0-10.667-1.867q-20.268,0-23.6,25.334Q126.666,251.2,145.867,251.2q6.665,0,14-4.4l-1.734-7.733q-0.935.269-3.466,1.266a16.107,16.107,0,0,1-5.934,1,5.659,5.659,0,0,1-5.2-3.266q-1.8-3.266-.666-11.334t3.8-11.733A8.571,8.571,0,0,1,154,211.333a24.406,24.406,0,0,1,7.467,1.467Zm16.6-10.533a18.81,18.81,0,0,0-6.8,12.6Q173,213.6,178.2,218.8a33.159,33.159,0,0,0,4.933,4.067q2.665,1.8,4.934,3.466A20.384,20.384,0,0,1,191.8,229.8a4.931,4.931,0,0,1,1.133,4,7.286,7.286,0,0,1-1.266,3.4q-2.935,4-8.8,4a17.7,17.7,0,0,1-6.934-1.6,15.376,15.376,0,0,1-2.6-1.2,14.635,14.635,0,0,0-1.8-.933l-4.266,9.2a19.362,19.362,0,0,1,2,1.2A28.656,28.656,0,0,0,183.4,251.2q10,0,15.733-4.8A19.541,19.541,0,0,0,206,233.733q1.131-7.864-4.2-13.066a25.2,25.2,0,0,0-4.867-4q-2.734-1.732-5-3.467a17.019,17.019,0,0,1-3.666-3.733,6.47,6.47,0,0,1-1-4.8q0-2,2.4-4.267A8.9,8.9,0,0,1,195.8,198a22.514,22.514,0,0,1,9.6,2.667l1.733,0.933,4.4-9.2q-0.669-.266-1.933-0.933t-4.333-1.867q-3.069-1.2-9.467-1.2Q186.6,188.4,180.867,193.067Zm54.266-10.934-12.666,1.734L213.267,250h12.4Zm14.934,0.8a9.969,9.969,0,0,0-2.934,5.467,6.565,6.565,0,0,0,1.334,5.267,5.843,5.843,0,0,0,4.733,2.066,7.574,7.574,0,0,0,5.267-2.066,8.632,8.632,0,0,0,2.733-5.334,6.852,6.852,0,0,0-1.2-5.4,5.59,5.59,0,0,0-4.667-2.133A7.449,7.449,0,0,0,250.067,182.933Zm8.4,18.934-12.8,1.733-6.4,46.4h12.4Zm34,34.4a15.15,15.15,0,0,1-3.534,3,8.24,8.24,0,0,1-4.466,1.4q-3.735,0-5-3.067t-0.134-11.4q1.131-8.331,3.734-11.533a8.689,8.689,0,0,1,7.133-3.2,11.718,11.718,0,0,1,5.6,1.6Zm-23.067-20.8A39.734,39.734,0,0,0,266.2,227a45.461,45.461,0,0,0-.4,11.267q1.465,12.934,11.867,12.933,7.2,0,14.8-6.8V250h10.4l9.466-67.867L299.8,183.867,297,204a17.511,17.511,0,0,0-7.867-2,22.48,22.48,0,0,0-7.6,1.333,18.656,18.656,0,0,0-6.8,4.334A26.729,26.729,0,0,0,269.4,215.467Zm72.4,6.933H329.267q0.931-6.666,3.4-9.267t4.933-2.6a4.149,4.149,0,0,1,3.8,2.534q1.332,2.534.4,9.333h0ZM329.6,239q-2.334-2.731-1.4-8.867h23.867a5.867,5.867,0,0,0,.666-2,32.733,32.733,0,0,0,.934-14.4q-2.269-12-14.8-12a19.319,19.319,0,0,0-14.4,6.4q-6.535,7.069-8.267,19.6-1.734,11.6,3.2,18a12.567,12.567,0,0,0,5.533,4.134,19.053,19.053,0,0,0,7,1.333,27.777,27.777,0,0,0,6.4-.667q7.465-1.465,10.667-3.866l-1.333-8.267a23.569,23.569,0,0,1-11.734,3.333A7.89,7.89,0,0,1,329.6,239Zm45.6-22.067a32.8,32.8,0,0,1,4.4-3.466,6.375,6.375,0,0,1,3.333-1.067,9.5,9.5,0,0,1,2.867.4,15.464,15.464,0,0,0,2.067.533l2.533-10.8q-0.669-.266-1.4-0.6a8.66,8.66,0,0,0-3-.333,9.84,9.84,0,0,0-5.333,2.133,18.112,18.112,0,0,0-5.067,5.334h-0.133l0.4-6.267H364.933L358.267,250h12.4Zm7.467,24.6A5.736,5.736,0,0,0,380.6,245.4a4.764,4.764,0,0,0,.933,3.933A4.343,4.343,0,0,0,385,250.8a5.438,5.438,0,0,0,3.8-1.467,6.566,6.566,0,0,0,2-3.933,4.563,4.563,0,0,0-.8-3.867,4.235,4.235,0,0,0-3.4-1.4A6.089,6.089,0,0,0,382.667,241.533Zm38.266-58.6a5.7,5.7,0,0,0-4.666-2.133,7.37,7.37,0,0,0-5.2,2.133,9.969,9.969,0,0,0-2.934,5.467,6.565,6.565,0,0,0,1.334,5.267,5.768,5.768,0,0,0,4.666,2.066,7.493,7.493,0,0,0,5.2-2.066,9.573,9.573,0,0,0,2.934-5.267A7,7,0,0,0,420.933,182.933ZM400.133,252q-0.8,5.6-2.8,8.133-1.2,1.332-5.2,2l-1.866,9.067a19.221,19.221,0,0,0,4.533.667q7.465,0,11.867-4.267t5.733-14.267l7.067-51.466L406.933,203.6Zm25.134-4.533a27.251,27.251,0,0,0,6,2.666,24.441,24.441,0,0,0,8.266,1.067q8.266,0,13.067-4.133a14.991,14.991,0,0,0,5.067-10,11.462,11.462,0,0,0-3.067-10.134,26.041,26.041,0,0,0-3.867-3.4Q448.6,222,446.867,220.6A19.009,19.009,0,0,1,444,217.8a3.847,3.847,0,0,1-.867-3.133q0.666-3.732,6.267-3.734a18.73,18.73,0,0,1,5.533.8,25.3,25.3,0,0,0,3.667.934l1.867-9.067a36.457,36.457,0,0,0-11.6-1.867q-7.736,0-12.334,3.534a13.746,13.746,0,0,0-5.4,9.4,12.561,12.561,0,0,0,2.934,10.266,20.711,20.711,0,0,0,3.6,3.534q2,1.535,3.666,3a17.058,17.058,0,0,1,2.734,3,5,5,0,0,1,.733,3.733,3.952,3.952,0,0,1-1.867,3.067,8.236,8.236,0,0,1-4.066.866,21.21,21.21,0,0,1-6.267-1.2,23.62,23.62,0,0,1-2.533-1.066,14.416,14.416,0,0,0-1.467-.667Z" transform="translate(-37.625 -180.813)"/>
  <path id="created_by_SamWest." data-name="created by SamWest." class="cls-2" d="M170.8,266.328a6.878,6.878,0,0,0-2.453-.429q-4.662,0-5.428,5.826-0.766,5.551,3.649,5.551a6.28,6.28,0,0,0,3.22-1.012l-0.4-1.779c-0.144.042-.41,0.138-0.8,0.292a3.708,3.708,0,0,1-1.364.23,1.3,1.3,0,0,1-1.2-.752,4.519,4.519,0,0,1-.154-2.606,6.165,6.165,0,0,1,.874-2.7,1.972,1.972,0,0,1,1.687-.843,5.6,5.6,0,0,1,1.717.337Zm4.155,3.067a7.593,7.593,0,0,1,1.012-.8,1.468,1.468,0,0,1,.767-0.245,2.2,2.2,0,0,1,.659.092,3.657,3.657,0,0,0,.475.123l0.583-2.484c-0.1-.041-0.21-0.087-0.322-0.138a1.987,1.987,0,0,0-.69-0.077,2.264,2.264,0,0,0-1.227.491,4.181,4.181,0,0,0-1.165,1.226h-0.031l0.092-1.441H172.6L171.061,277h2.852Zm9.288,1.257h-2.883a3.92,3.92,0,0,1,.782-2.131,1.6,1.6,0,0,1,1.135-.6,0.954,0.954,0,0,1,.874.582,3.982,3.982,0,0,1,.092,2.147h0Zm-2.806,3.818a2.517,2.517,0,0,1-.322-2.039h5.489a1.359,1.359,0,0,0,.154-0.46,7.54,7.54,0,0,0,.214-3.312,3.1,3.1,0,0,0-3.4-2.76,4.44,4.44,0,0,0-3.312,1.472,8.088,8.088,0,0,0-1.9,4.508,5.3,5.3,0,0,0,.736,4.14,2.888,2.888,0,0,0,1.273.95,4.381,4.381,0,0,0,1.61.307,6.4,6.4,0,0,0,1.472-.153,6.258,6.258,0,0,0,2.453-.89l-0.307-1.9a5.423,5.423,0,0,1-2.7.767A1.815,1.815,0,0,1,181.438,274.47Zm12.5-.629a3.435,3.435,0,0,1-.812.69,1.9,1.9,0,0,1-1.028.322,1.123,1.123,0,0,1-1.15-.7,5.833,5.833,0,0,1-.03-2.622,5.586,5.586,0,0,1,.858-2.653,1.846,1.846,0,0,1,1.488-.736,13.534,13.534,0,0,1,1.441.062Zm0,3.159h2.392l1.5-10.58a24.475,24.475,0,0,0-4.692-.46,4.505,4.505,0,0,0-3.281,1.288,6.367,6.367,0,0,0-1.227,1.809,9.149,9.149,0,0,0-.736,2.653,10.462,10.462,0,0,0-.092,2.591q0.338,2.976,2.729,2.975a5.2,5.2,0,0,0,3.4-1.564V277Zm9.007-10.856,0.46-3.067-2.913.46-0.368,2.607h-1.166l-0.276,2.085h1.166l-0.828,5.612a4.031,4.031,0,0,0,.276,2.653,2.23,2.23,0,0,0,1.993.782,4.236,4.236,0,0,0,1.717-.337q0.306-.123.552-0.246a2.142,2.142,0,0,1,.368-0.153v-2.024q-0.123.031-.49,0.169a2.494,2.494,0,0,1-.874.138,0.583,0.583,0,0,1-.629-0.338,2.17,2.17,0,0,1,0-1.042l0.736-5.214h2.361l0.246-2.085h-2.331Zm8.38,4.508h-2.883a3.92,3.92,0,0,1,.782-2.131,1.6,1.6,0,0,1,1.135-.6,0.954,0.954,0,0,1,.874.582,3.982,3.982,0,0,1,.092,2.147h0Zm-2.806,3.818a2.517,2.517,0,0,1-.322-2.039h5.489a1.359,1.359,0,0,0,.154-0.46,7.54,7.54,0,0,0,.214-3.312,3.1,3.1,0,0,0-3.4-2.76,4.44,4.44,0,0,0-3.312,1.472,8.088,8.088,0,0,0-1.9,4.508,5.3,5.3,0,0,0,.736,4.14,2.888,2.888,0,0,0,1.273.95,4.381,4.381,0,0,0,1.61.307,6.4,6.4,0,0,0,1.472-.153,6.258,6.258,0,0,0,2.453-.89l-0.307-1.9a5.423,5.423,0,0,1-2.7.767A1.815,1.815,0,0,1,208.518,274.47Zm12.959-.629a3.435,3.435,0,0,1-.812.69,1.9,1.9,0,0,1-1.028.322,1.123,1.123,0,0,1-1.15-.7,5.833,5.833,0,0,1-.03-2.622,5.586,5.586,0,0,1,.858-2.653,2,2,0,0,1,1.641-.736,2.7,2.7,0,0,1,1.288.368Zm-5.305-4.784a9.149,9.149,0,0,0-.736,2.653,10.462,10.462,0,0,0-.092,2.591q0.337,2.976,2.729,2.975a5.2,5.2,0,0,0,3.4-1.564V277h2.392l2.178-15.609-2.883.4-0.644,4.631a4.021,4.021,0,0,0-1.809-.46,5.167,5.167,0,0,0-1.748.307,4.274,4.274,0,0,0-1.564,1A6.13,6.13,0,0,0,216.172,269.057Zm20.245-.736a1.114,1.114,0,0,1,1.089.736,5.489,5.489,0,0,1,.077,2.607,5.362,5.362,0,0,1-.844,2.377,1.964,1.964,0,0,1-1.64.72,1.069,1.069,0,0,1-.644-0.2c-0.184-.133-0.379-0.281-0.583-0.445l0.675-4.814a1.694,1.694,0,0,1,.276-0.276A2.508,2.508,0,0,1,236.417,268.321Zm-5.8,8.679h2.392l0.43-1.257q0.153,0.215.337,0.46a2.642,2.642,0,0,0,2.147.92,3.713,3.713,0,0,0,2.882-1.411,8.151,8.151,0,0,0,1.748-4.293,6.755,6.755,0,0,0-.429-4.2,2.425,2.425,0,0,0-.951-1,2.8,2.8,0,0,0-1.38-.322,3.215,3.215,0,0,0-1.686.552,4.686,4.686,0,0,0-.721.475q-0.322.261-.567,0.445l0.828-5.98-2.914.4Zm11.215,4.447a11.039,11.039,0,0,0,3.435.644,4.611,4.611,0,0,0,3.25-1.028,5.2,5.2,0,0,0,1.411-3.174l1.656-11.745h-2.852l-1.043,7.452q-0.123.091-.337,0.276a2.67,2.67,0,0,1-1.687.889,0.85,0.85,0,0,1-.858-0.46,5.6,5.6,0,0,1,.03-1.564l0.951-6.593h-2.883l-1.042,7.3a5.032,5.032,0,0,0,.245,2.867,2.1,2.1,0,0,0,2.055.935,4.636,4.636,0,0,0,3.189-1.625h0.061l-0.368,2.331a2.98,2.98,0,0,1-.8,1.748,1.958,1.958,0,0,1-1.2.245,8.409,8.409,0,0,1-2.668-.46ZM258.689,263.9a4.331,4.331,0,0,0-1.564,2.9,3.4,3.4,0,0,0,.951,3.021,7.556,7.556,0,0,0,1.135.935q0.612,0.414,1.134.8a4.662,4.662,0,0,1,.859.8,1.137,1.137,0,0,1,.261.92,1.683,1.683,0,0,1-.292.782,2.348,2.348,0,0,1-2.024.92,4.076,4.076,0,0,1-1.594-.368,3.429,3.429,0,0,1-.6-0.276,3.541,3.541,0,0,0-.414-0.215l-0.982,2.116a4.72,4.72,0,0,1,.46.276,6.592,6.592,0,0,0,3.251.767,5.469,5.469,0,0,0,3.619-1.1,4.5,4.5,0,0,0,1.579-2.913,3.312,3.312,0,0,0-.966-3.006,5.834,5.834,0,0,0-1.119-.92q-0.63-.4-1.15-0.8a3.906,3.906,0,0,1-.844-0.859,1.492,1.492,0,0,1-.23-1.1,1.436,1.436,0,0,1,.552-0.981,2.047,2.047,0,0,1,1.411-.552,5.19,5.19,0,0,1,2.208.613l0.4,0.215,1.012-2.116a4.88,4.88,0,0,1-.445-0.215q-0.293-.153-1-0.429a6.375,6.375,0,0,0-2.177-.276A5.272,5.272,0,0,0,258.689,263.9Zm13.668,9.936a3.435,3.435,0,0,1-.812.69,1.9,1.9,0,0,1-1.028.322,1.123,1.123,0,0,1-1.15-.7,5.833,5.833,0,0,1-.03-2.622,5.586,5.586,0,0,1,.858-2.653,1.846,1.846,0,0,1,1.488-.736,13.534,13.534,0,0,1,1.441.062Zm0,3.159h2.392l1.5-10.58a24.475,24.475,0,0,0-4.692-.46,4.505,4.505,0,0,0-3.281,1.288,6.367,6.367,0,0,0-1.227,1.809,9.149,9.149,0,0,0-.736,2.653,10.462,10.462,0,0,0-.092,2.591q0.338,2.976,2.729,2.975a5.2,5.2,0,0,0,3.4-1.564V277Zm4.744,0h2.822l1.042-7.421a2.891,2.891,0,0,1,.736-0.859,1.232,1.232,0,0,1,.859-0.337,0.638,0.638,0,0,1,.7.4,2.462,2.462,0,0,1,0,1.1L282.253,277h2.76l1.012-7.421a2.485,2.485,0,0,1,.767-0.859,1.3,1.3,0,0,1,.859-0.337,0.612,0.612,0,0,1,.674.4,2.268,2.268,0,0,1-.03,1.1L287.344,277H290.2l0.981-7.36a4.856,4.856,0,0,0-.214-2.883,1.967,1.967,0,0,0-1.871-.858,2.939,2.939,0,0,0-1.043.184,4.424,4.424,0,0,0-1.962,1.472,1.815,1.815,0,0,0-.614-1.3A2.531,2.531,0,0,0,284,265.9a3.22,3.22,0,0,0-1.932.7,4.289,4.289,0,0,0-.628.567,3.744,3.744,0,0,1-.414.414l0.122-1.441h-2.514Zm28.678-13.923-3.036,9.415-0.644-8.28h-2.27l-3,8.28-0.4-9.415h-2.944L294.432,277h2.729l3.19-8.863L301.025,277h2.791l4.845-13.923h-2.882Zm7.965,7.575h-2.883a3.92,3.92,0,0,1,.782-2.131,1.6,1.6,0,0,1,1.135-.6,0.954,0.954,0,0,1,.874.582,3.982,3.982,0,0,1,.092,2.147h0Zm-2.806,3.818a2.517,2.517,0,0,1-.322-2.039h5.489a1.359,1.359,0,0,0,.154-0.46,7.54,7.54,0,0,0,.214-3.312,3.1,3.1,0,0,0-3.4-2.76,4.44,4.44,0,0,0-3.312,1.472,8.088,8.088,0,0,0-1.9,4.508,5.3,5.3,0,0,0,.736,4.14,2.888,2.888,0,0,0,1.273.95,4.381,4.381,0,0,0,1.61.307,6.4,6.4,0,0,0,1.472-.153,6.258,6.258,0,0,0,2.453-.89l-0.307-1.9a5.423,5.423,0,0,1-2.7.767A1.815,1.815,0,0,1,310.938,274.47Zm5.783,1.947a6.249,6.249,0,0,0,1.38.614,5.643,5.643,0,0,0,1.9.245,4.451,4.451,0,0,0,3-.951,3.444,3.444,0,0,0,1.165-2.3,2.635,2.635,0,0,0-.7-2.33,6.011,6.011,0,0,0-.889-0.782q-0.492-.353-0.89-0.675a4.353,4.353,0,0,1-.659-0.644,0.882,0.882,0,0,1-.2-0.721,1.212,1.212,0,0,1,1.441-.858,4.3,4.3,0,0,1,1.273.184,5.827,5.827,0,0,0,.843.214l0.429-2.085a8.384,8.384,0,0,0-2.668-.429,4.541,4.541,0,0,0-2.836.812,3.157,3.157,0,0,0-1.242,2.162,2.891,2.891,0,0,0,.674,2.362,4.816,4.816,0,0,0,.828.812q0.461,0.354.844,0.69a4,4,0,0,1,.628.69,1.149,1.149,0,0,1,.169.859,0.909,0.909,0,0,1-.429.7,1.89,1.89,0,0,1-.936.2,4.88,4.88,0,0,1-1.441-.276,5.608,5.608,0,0,1-.583-0.246,3.572,3.572,0,0,0-.337-0.153Zm13.263-10.273,0.46-3.067-2.913.46-0.368,2.607H326l-0.276,2.085h1.166l-0.828,5.612a4.031,4.031,0,0,0,.276,2.653,2.23,2.23,0,0,0,1.993.782,4.236,4.236,0,0,0,1.717-.337q0.306-.123.552-0.246a2.142,2.142,0,0,1,.368-0.153v-2.024q-0.123.031-.49,0.169a2.494,2.494,0,0,1-.874.138,0.583,0.583,0,0,1-.629-0.338,2.17,2.17,0,0,1,0-1.042l0.736-5.214h2.361l0.246-2.085h-2.331Zm3.289,8.909a1.318,1.318,0,0,0-.475.889,1.1,1.1,0,0,0,.215.9,1,1,0,0,0,.8.337,1.253,1.253,0,0,0,.874-0.337,1.511,1.511,0,0,0,.46-0.9,1.049,1.049,0,0,0-.184-0.889,0.973,0.973,0,0,0-.782-0.322A1.4,1.4,0,0,0,333.273,275.053Z" transform="translate(-37.625 -180.813)"/>
</svg>
