<svg xmlns="http://www.w3.org/2000/svg" width="24" height="24" viewBox="0 0 24 24">
  <defs>
    <style>
      .cls-1 {
        fill: #fff;
        fill-rule: evenodd;
      }
    </style>
  </defs>
  <path id="_" data-name="" class="cls-1" d="M351.834,514.694a11.159,11.159,0,0,0,6.122,16.17,0.651,0.651,0,0,0,.581-0.1,0.569,0.569,0,0,0,.188-0.435c0-.039,0-0.3-0.007-0.791s-0.007-.916-0.007-1.284l-0.334.058a4.225,4.225,0,0,1-.805.051,6.191,6.191,0,0,1-1.008-.1,2.253,2.253,0,0,1-.973-0.436,1.841,1.841,0,0,1-.638-0.892l-0.145-.334a3.656,3.656,0,0,0-.457-0.74,1.768,1.768,0,0,0-.631-0.551l-0.1-.073a1.056,1.056,0,0,1-.188-0.174,0.784,0.784,0,0,1-.131-0.2,0.123,0.123,0,0,1,.073-0.167,0.945,0.945,0,0,1,.42-0.065l0.291,0.044a2.1,2.1,0,0,1,.718.348,2.333,2.333,0,0,1,.7.754,2.556,2.556,0,0,0,.806.907,1.707,1.707,0,0,0,.95.312,4.057,4.057,0,0,0,.827-0.073,2.846,2.846,0,0,0,.653-0.217,2.457,2.457,0,0,1,.711-1.5,9.946,9.946,0,0,1-1.487-.261,5.87,5.87,0,0,1-1.364-.566,3.9,3.9,0,0,1-1.168-.972,4.642,4.642,0,0,1-.762-1.523,7.252,7.252,0,0,1-.3-2.176,4.3,4.3,0,0,1,1.146-2.989,3.865,3.865,0,0,1,.116-2.96,2,2,0,0,1,1.233.2,8.74,8.74,0,0,1,1.212.558c0.256,0.155.462,0.286,0.616,0.392a10.483,10.483,0,0,1,5.572,0l0.551-.348a7.847,7.847,0,0,1,1.335-.639,1.9,1.9,0,0,1,1.175-.159,3.865,3.865,0,0,1,.116,2.96,4.3,4.3,0,0,1,1.146,2.989,7.319,7.319,0,0,1-.3,2.183,4.49,4.49,0,0,1-.769,1.524,4.047,4.047,0,0,1-1.175.964,5.888,5.888,0,0,1-1.364.566,9.946,9.946,0,0,1-1.487.261,2.587,2.587,0,0,1,.754,2.061q0,0.885-.007,1.951t-0.007,1.11a0.569,0.569,0,0,0,.188.435,0.652,0.652,0,0,0,.581.1,11.169,11.169,0,0,0,6.123-16.17,11.111,11.111,0,0,0-4.056-4.056,11.216,11.216,0,0,0-11.186,0A11.1,11.1,0,0,0,351.834,514.694Zm2.539,10.482q-0.145-.072-0.1-0.174a0.152,0.152,0,0,1,.189-0.029c0.1,0.049.13,0.107,0.1,0.174s-0.1.087-.188,0.029h0Zm0.406,0.421c-0.087-.106-0.1-0.183-0.029-0.232s0.135-.043.232,0.044c0.087,0.106.1,0.183,0.029,0.232-0.058.067-.135,0.053-0.232-0.044h0Zm0.421,0.6q-0.13-.189,0-0.261,0.13-.1.246,0.087a0.177,0.177,0,0,1,0,.276Q355.331,526.381,355.2,526.192Zm0.566,0.667c-0.126-.106-0.145-0.2-0.058-0.275s0.174-.073.29,0.043,0.135,0.2.058,0.276-0.174.073-.29-0.044h0Zm0.841,0.494c-0.164-.039-0.227-0.111-0.188-0.218a0.2,0.2,0,0,1,.275-0.1c0.155,0.048.218,0.125,0.189,0.232s-0.131.145-.276,0.087h0Zm0.958,0.145c-0.165.019-.247-0.034-0.247-0.16,0-.106.077-0.159,0.232-0.159,0.165-.02.247,0.034,0.247,0.159,0,0.107-.078.16-0.232,0.16h0Zm0.87-.1c-0.155.039-.242,0-0.261-0.116s0.048-.188.2-0.217,0.242,0.024.261,0.13S358.59,527.358,358.435,527.4Z" transform="translate(-349.485 -508.015)"/>
</svg>
