<svg xmlns="http://www.w3.org/2000/svg" width="10" height="13.719" viewBox="0 0 10 13.719">
  <defs>
    <style>
      .cls-1 {
        fill: #fff;
        fill-rule: evenodd;
      }
    </style>
  </defs>
  <path id="_" data-name="ï" class="cls-1" d="M310.411,580.858a2.284,2.284,0,1,1,1.616-.669A2.2,2.2,0,0,1,310.411,580.858Zm3.232-5.518a4.572,4.572,0,0,0-7.8,3.233,3.751,3.751,0,0,0,.3,1.6l3.259,6.911a1.03,1.03,0,0,0,.415.464,1.158,1.158,0,0,0,1.2,0,1.08,1.08,0,0,0,.424-0.464l3.25-6.911a3.751,3.751,0,0,0,.3-1.6A4.406,4.406,0,0,0,313.643,575.34Z" transform="translate(-305.406 -574)"/>
</svg>
