<svg xmlns="http://www.w3.org/2000/svg" width="24" height="24" viewBox="0 0 24 24">
  <defs>
    <style>
      .cls-1 {
        fill: #fff;
        fill-rule: evenodd;
      }
    </style>
  </defs>
  <path id="_" data-name="" class="cls-1" d="M402.145,513.932a4.546,4.546,0,0,0,2.06-2.583,9.168,9.168,0,0,1-2.974,1.132,4.688,4.688,0,0,0-8.11,3.207,5.154,5.154,0,0,0,.116,1.073,13.052,13.052,0,0,1-5.39-1.443,13.268,13.268,0,0,1-4.273-3.461,4.7,4.7,0,0,0-.073,4.6,4.675,4.675,0,0,0,1.524,1.668,4.646,4.646,0,0,1-2.119-.6v0.058a4.528,4.528,0,0,0,1.067,2.982,4.614,4.614,0,0,0,2.691,1.618,4.862,4.862,0,0,1-1.233.159,5.976,5.976,0,0,1-.885-0.072,4.7,4.7,0,0,0,4.381,3.25,9.177,9.177,0,0,1-5.818,2,9.938,9.938,0,0,1-1.131-.058,13.017,13.017,0,0,0,7.2,2.1,13.7,13.7,0,0,0,4.686-.791,11.915,11.915,0,0,0,3.744-2.118,14.164,14.164,0,0,0,2.677-3.055A13.6,13.6,0,0,0,401.956,520a13.3,13.3,0,0,0,.552-3.765q0-.407-0.015-0.609a9.828,9.828,0,0,0,2.351-2.423,9.344,9.344,0,0,1-2.7.725h0Z" transform="translate(-381.406 -508.281)"/>
</svg>
